<?xml version="1.0" encoding="utf-8"?>
<!-- Generator: Adobe Illustrator 15.0.0, SVG Export Plug-In . SVG Version: 6.00 Build 0)  -->
<!DOCTYPE svg PUBLIC "-//W3C//DTD SVG 1.1//EN" "http://www.w3.org/Graphics/SVG/1.1/DTD/svg11.dtd" [
	<!ENTITY ns_extend "http://ns.adobe.com/Extensibility/1.0/">
	<!ENTITY ns_ai "http://ns.adobe.com/AdobeIllustrator/10.0/">
	<!ENTITY ns_graphs "http://ns.adobe.com/Graphs/1.0/">
	<!ENTITY ns_vars "http://ns.adobe.com/Variables/1.0/">
	<!ENTITY ns_imrep "http://ns.adobe.com/ImageReplacement/1.0/">
	<!ENTITY ns_sfw "http://ns.adobe.com/SaveForWeb/1.0/">
	<!ENTITY ns_custom "http://ns.adobe.com/GenericCustomNamespace/1.0/">
	<!ENTITY ns_adobe_xpath "http://ns.adobe.com/XPath/1.0/">
]>
<svg version="1.1" xmlns:x="&ns_extend;" xmlns:i="&ns_ai;" xmlns:graph="&ns_graphs;"
	 xmlns="http://www.w3.org/2000/svg" xmlns:xlink="http://www.w3.org/1999/xlink" x="0px" y="0px" width="609px" height="618px"
	 viewBox="0 0 609 618" enable-background="new 0 0 609 618" xml:space="preserve">
<metadata>
	<sfw  xmlns="&ns_sfw;">
		<slices></slices>
		<sliceSourceBounds  width="1046.24" height="714.605" x="-607.24" y="-236.865" bottomLeftOrigin="true"></sliceSourceBounds>
	</sfw>
</metadata>
<g id="Layer_1">
	<g id="line2d1">
		<g>
			<defs>
				<path id="SVGID_1_" d="M317,565.24c65.304,0,127.941-25.945,174.118-72.122S563.24,384.304,563.24,319
					s-25.945-127.941-72.122-174.118C444.941,98.706,382.304,72.76,317,72.76s-127.941,25.946-174.118,72.122
					C96.706,191.059,70.76,253.696,70.76,319s25.946,127.941,72.122,174.118C189.059,539.295,251.696,565.24,317,565.24z"/>
			</defs>
			<clipPath id="SVGID_2_">
				<use xlink:href="#SVGID_1_"  overflow="visible"/>
			</clipPath>
			
				<path clip-path="url(#SVGID_2_)" fill="none" stroke="#0071BC" stroke-width="3" stroke-linecap="square" stroke-linejoin="round" d="
				M317,319l1.229-0.077l1.215-0.231l2.327-0.916l2.098-1.494l1.763-2.026l1.33-2.491l0.81-2.877l0.217-3.167l-0.432-3.352
				l-0.473-1.708l-0.647-1.711l-0.824-1.698l-1.002-1.669l-1.18-1.624l-1.354-1.563l-1.526-1.488l-1.693-1.396L317,288.22
				l-2.01-1.168l-2.156-1.032l-2.294-0.882l-2.42-0.72l-2.534-0.545l-2.636-0.358l-2.725-0.162l-2.798,0.045l-2.857,0.26
				l-2.898,0.482l-2.924,0.711l-2.932,0.944l-2.921,1.181l-2.892,1.42l-2.845,1.66l-2.779,1.899l-2.693,2.137l-2.589,2.37
				l-2.466,2.599l-2.324,2.822l-2.164,3.036l-1.985,3.241l-1.791,3.437l-1.578,3.618L255.44,319l-1.107,3.943l-0.85,4.08
				l-0.58,4.204l-0.298,4.307l-0.006,4.392l0.296,4.455l0.606,4.5l0.923,4.521l1.244,4.521l1.569,4.498l1.896,4.452l2.223,4.381
				l2.548,4.289l2.87,4.171l3.188,4.03l3.498,3.865l3.801,3.678l4.093,3.467l4.374,3.233l4.641,2.979l4.893,2.703l5.128,2.407
				l5.346,2.093l5.544,1.76L317,411.34l5.875,1.047l6.007,0.668l6.113,0.278l6.193-0.124l6.248-0.534l6.275-0.951l6.274-1.374
				l6.244-1.8l6.186-2.229l6.097-2.656l5.979-3.081l5.833-3.501l5.655-3.915l5.45-4.321l5.215-4.716l4.952-5.098l4.662-5.465
				l4.345-5.816l4.001-6.148l3.634-6.459l3.242-6.75l2.83-7.016l2.395-7.256l1.942-7.47L440.12,319l0.985-7.809l0.486-7.931
				l-0.024-8.023l-0.545-8.081l-1.073-8.105l-1.606-8.095l-2.143-8.048l-2.678-7.967l-3.213-7.85l-3.743-7.697l-4.266-7.507
				l-4.78-7.283l-5.282-7.023l-5.771-6.729l-6.243-6.4l-6.697-6.04l-7.13-5.646l-7.539-5.222l-7.923-4.77l-8.279-4.289l-8.606-3.782
				l-8.903-3.251l-9.165-2.698l-9.395-2.124L317,165.1l-9.741-0.925l-9.856-0.304l-9.933,0.327l-9.968,0.967l-9.962,1.613
				l-9.914,2.261l-9.823,2.91l-9.69,3.556l-9.515,4.197l-9.295,4.83l-9.036,5.451l-8.733,6.059l-8.39,6.65l-8.007,7.222
				l-7.585,7.771l-7.126,8.296l-6.63,8.794l-6.1,9.262l-5.538,9.698l-4.944,10.099l-4.321,10.464l-3.673,10.79l-3,11.076
				l-2.306,11.319L132.32,319l-0.864,11.674l-0.122,11.781l0.629,11.843l1.389,11.854l2.152,11.819l2.916,11.733l3.678,11.598
				l4.434,11.413l5.182,11.178l5.916,10.896l6.637,10.563l7.337,10.184l8.017,9.758l8.672,9.286l9.299,8.771l9.896,8.213
				l10.458,7.614l10.985,6.979l11.472,6.305l11.918,5.599l12.321,4.861l12.677,4.095l12.985,3.303l13.244,2.487L317,534.46
				l13.606,0.804l13.706-0.06l13.753-0.933l13.742-1.811l13.676-2.691l13.552-3.571l13.373-4.446l13.136-5.312l12.843-6.166
				l12.494-7.003l12.091-7.821l11.635-8.616l11.125-9.385l10.564-10.123l9.956-10.827l9.3-11.494l8.599-12.123l7.856-12.707
				l7.073-13.247l6.253-13.738l5.4-14.177l4.517-14.563l3.605-14.896l2.67-15.168L563.24,319l0.742-15.539l-0.241-15.632
				l-1.234-15.662l-2.232-15.629l-3.231-15.533l-4.227-15.372l-5.214-15.147l-6.189-14.858l-7.15-14.507l-8.09-14.094l-9.007-13.619
				l-9.895-13.085l-10.752-12.492l-11.573-11.843l-12.354-11.141L459.497,94.46l-13.787-9.583l-14.43-8.734l-15.021-7.841
				l-15.558-6.909l-16.034-5.94l-16.451-4.938l-16.805-3.908l-17.094-2.852L317,41.98l-17.472-0.682l-17.557,0.423l-17.572,1.538
				l-17.516,2.654l-17.39,3.771l-17.191,4.881l-16.922,5.982l-16.582,7.067l-16.171,8.134l-15.693,9.177l-15.147,10.192
				l-14.535,11.174l-13.859,12.119l-13.122,13.023l-12.326,13.883L66.472,160.01l-10.567,15.452l-9.612,16.153l-8.609,16.796
				l-7.563,17.376l-6.479,17.891l-5.36,18.338l-4.21,18.715l-3.034,19.02L9.2,319l-0.622,19.404l0.605,19.482l1.84,19.481
				l3.076,19.403l4.31,19.246l5.536,19.011l6.75,18.696l7.945,18.305l9.119,17.836l10.264,17.292l11.377,16.675l12.453,15.985
				l13.486,15.227l14.474,14.401l15.411,13.511l16.292,12.561l17.116,11.552l17.876,10.49l18.57,9.377l19.196,8.219l19.748,7.019
				l8.141,2.327 M431.48,644.5l12.879-3.828l20.471-7.518l20.027-8.823l19.5-10.103l18.892-11.351l18.203-12.563l17.436-13.731
				l16.594-14.854l15.68-15.924l14.696-16.939l13.647-17.892l12.536-18.78l10.459-18.032l0,0"/>
			<use xlink:href="#SVGID_1_"  overflow="visible" fill="none" stroke="#0071BC" stroke-miterlimit="10"/>
		</g>
	</g>
	<g>
		<path fill="#0071BC" stroke="#0071BC" stroke-linecap="square" stroke-linejoin="round" d="M317,319h246.24"/>
	</g>
	<g transform="translate(391.594680,222.844268)scale(0.400000,-0.400000)">
		<g transform="scale(0.996264)">
			<path id="URW_Palladio_L_Roman-48" fill="#0071BC" d="M491.653-213.265c-11.58,0-17.488-9.341-17.488-27.695
				c0-8.872,1.565-16.553,4.18-20.266c2.615-3.735,6.794-5.837,11.44-5.837c11.279,0,16.953,9.854,16.953,29.304
				C506.738-221.158,501.882-213.265,491.653-213.265 M490.3-215.928c7.239,0,10.156-7.426,10.156-25.638
				c0-16.157-2.825-22.837-9.714-22.837c-7.236,0-10.295,7.661-10.295,26.177C480.447-222.233,483.201-215.928,490.3-215.928"/>
		</g>
	</g>
	<g>
		<path fill="#0071BC" stroke="#0071BC" stroke-linecap="square" stroke-linejoin="round" d="M317,319l174.118-174.118"/>
	</g>
	<g transform="translate(338.174507,99.457859)scale(0.400000,-0.400000)">
		<g transform="scale(0.757155)">
			<path id="Pazo_Math_Italic-112" fill="#0071BC" d="M411.375-36.946l0.515,0.374c1.189,3.318,3.459,3.496,6.709,3.496
				c0.674,0,1.702,0,2.891,0c-4.773-12.777-6.938-16.664-11.533-23.779l0.515-0.515l4.204,1.438
				c2.041,4.347,5.503,12.794,8.625,22.572h10.559c-0.959-3.513-4.26-13.735-4.26-17.355c0-5.928,2.166-6.655,3.923-6.655
				c2.891,0,4.541,0.728,8.127,3.727l-0.461,1.064l-1.367-0.958c0.178,0.125-1.472-1.171-2.432-1.171
				c-2.678,0-3.459,1.632-3.459,5.128c0,1.42,0.105,2.946,0.442,4.596c0.977,4.667,1.936,9.316,2.451,11.624
				c1.294,0,2.607,0,3.921,0c1.011,0,2.271,0.586,3.176,0.923c0.62,1.207,0.852,1.313,1.934,2.715l-0.408,0.692
				c-1.526-0.514-4.082-1.083-5.962-1.083c-0.674,0-2.095,0-3.513,0c-6.086,0-15.457,0-17.942,0c-4.258,0-5.803-1.738-7.454-6.388
				L411.375-36.946z"/>
		</g>
		<g transform="scale(0.757155)">
			<path id="URW_Palladio_L_Roman-52" fill="#0071BC" d="M427.591-101.232v-4.241c0-3.372-0.62-4.17-3.406-4.17h-3.513v-1.81
				c7.542,0,7.542,0,8.906,0c1.367,0,1.367,0,8.909,0v1.81h-2.715c-2.786,0-3.406,0.745-3.406,4.152v4.259
				c3.352,0,4.541,0,6.121-0.159v4.116c-2.661-0.231-3.743-0.231-4.595-0.231h-0.161h-1.365v8.092
				c0,10.364,0.105,15.386,0.388,17.764l-0.674,0.302l-4.204-1.58L411.798-99.9l0.64-1.332H427.591z M427.591-97.505h-12.209
				l12.209,20.514V-97.505z"/>
		</g>
		<path fill="#0071BC" d="M405.218-68.489h41.34v2.988h-41.34V-68.489z"/>
	</g>
	<g>
		<path fill="#0071BC" stroke="#0071BC" stroke-linecap="square" stroke-linejoin="round" d="M317,319V72.76"/>
	</g>
	<g transform="translate(210.487993,46.568373)scale(0.400000,-0.400000)">
		<g transform="scale(0.757155)">
			<path id="Pazo_Math_Italic-112_1_" fill="#0071BC" d="M251.768,29.166l0.515,0.372c1.189,3.319,3.459,3.496,6.707,3.496
				c0.674,0,1.704,0,2.893,0c-4.773-12.777-6.938-16.663-11.536-23.779l0.515-0.515l4.207,1.438
				c2.041,4.348,5.5,12.794,8.623,22.573h10.559c-0.957-3.514-4.258-13.735-4.258-17.356c0-5.928,2.166-6.655,3.921-6.655
				c2.893,0,4.543,0.728,8.127,3.727l-0.461,1.066l-1.367-0.959c0.178,0.125-1.472-1.171-2.429-1.171
				c-2.681,0-3.462,1.632-3.462,5.128c0,1.42,0.107,2.947,0.444,4.597c0.977,4.667,1.934,9.316,2.449,11.624c1.296,0,2.61,0,3.921,0
				c1.013,0,2.273,0.585,3.179,0.922c0.62,1.207,0.85,1.313,1.934,2.716l-0.408,0.692c-1.526-0.515-4.082-1.083-5.964-1.083
				c-0.674,0-2.092,0-3.513,0c-6.086,0-15.457,0-17.939,0c-4.26,0-5.803-1.74-7.454-6.389L251.768,29.166z"/>
		</g>
		<g transform="scale(0.757155)">
			<path id="URW_Palladio_L_Roman-50" fill="#0071BC" d="M252.989-43.887v-1.455c10.63,0,10.63,0,12.671,0c2.039,0,2.039,0,13.008,0
				c-0.125,1.154-0.125,1.686-0.125,2.449c0,0.71,0,1.261,0.125,2.45c-6.531,0-9.158,0-19.663,0l10.344,10.984
				c5.503,5.874,7.207,9.015,7.207,13.274c0,6.566-4.419,10.594-11.643,10.594c-4.082,0-6.868-1.135-9.653-4.028l-0.957-7.826h1.65
				l0.728,2.627c0.903,3.318,2.964,4.756,6.76,4.756c4.88,0,8.003-3.105,8.003-7.986c0-4.313-2.378-8.553-8.801-15.439
				L252.989-43.887z"/>
		</g>
		<path fill="#0071BC" d="M245.611-2.378h41.338v2.99h-41.338V-2.378z"/>
	</g>
	<g>
		<path fill="#0071BC" stroke="#0071BC" stroke-linecap="square" stroke-linejoin="round" d="M317,319L142.882,144.882"/>
	</g>
	<g transform="translate(79.015703,100.877470)scale(0.400000,-0.400000)">
		<g transform="scale(0.757155)">
			<path id="URW_Palladio_L_Roman-51" fill="#0071BC" d="M83.718-29.013h1.758l1.011,3.319c0.64,2.006,4.207,4.028,7.169,4.028
				c3.691,0,6.691-3.159,6.691-6.886c0-4.454-3.354-8.18-7.383-8.18c-0.443,0-1.082,0-1.809,0h-0.852l-0.692-2.893l0.408-0.355
				c2.147,0.977,3.23,1.278,4.774,1.278c4.702,0,7.435-3.07,7.435-8.323c0-5.874-3.461-9.742-8.749-9.742
				c-2.609,0-4.933,0.869-6.637,2.484c-1.366,1.278-2.112,2.592-3.195,5.714l-1.526-0.586c1.189-3.531,1.65-5.607,1.987-8.481
				c3.018-1.047,5.502-1.509,7.614-1.509c4.542,0,9.76,2.59,12.883,6.459c1.934,2.378,2.892,4.934,2.892,7.649
				c0,2.769-1.135,5.182-3.176,6.637c-1.42,1.029-2.715,1.49-5.554,2.023c4.543,3.656,6.246,6.371,6.246,9.867
				c0,5.253-4.205,8.732-10.505,8.732c-3.868,0-6.423-1.118-9.156-3.94L83.718-29.013z"/>
		</g>
		<g transform="scale(0.757155)">
			<path id="Pazo_Math_Italic-112_2_" fill="#0071BC" d="M115.82-38.72l0.515,0.374c1.189,3.318,3.461,3.495,6.708,3.495
				c0.675,0,1.704,0,2.893,0c-4.774-12.776-6.938-16.663-11.536-23.779l0.515-0.514l4.205,1.437
				c2.041,4.348,5.502,12.795,8.625,22.573h10.558c-0.958-3.513-4.259-13.735-4.259-17.356c0-5.927,2.166-6.654,3.922-6.654
				c2.893,0,4.543,0.728,8.127,3.727l-0.461,1.064l-1.366-0.958c0.177,0.125-1.473-1.172-2.432-1.172
				c-2.679,0-3.461,1.633-3.461,5.129c0,1.42,0.107,2.946,0.444,4.596c0.975,4.667,1.934,9.316,2.449,11.624
				c1.295,0,2.609,0,3.922,0c1.011,0,2.272,0.586,3.176,0.923c0.621,1.206,0.852,1.313,1.935,2.715l-0.409,0.692
				c-1.526-0.515-4.081-1.083-5.962-1.083c-0.675,0-2.095,0-3.514,0c-6.086,0-15.457,0-17.941,0c-4.259,0-5.803-1.738-7.454-6.388
				L115.82-38.72z"/>
		</g>
		<g transform="scale(0.757155)">
			<path id="URW_Palladio_L_Roman-52_1_" fill="#0071BC" d="M117.84-103.006v-4.241c0-3.372-0.621-4.17-3.408-4.17h-3.513v-1.81
				c7.541,0,7.541,0,8.909,0c1.366,0,1.366,0,8.909,0v1.81h-2.716c-2.786,0-3.407,0.745-3.407,4.152v4.259
				c3.354,0,4.543,0,6.123-0.16v4.117c-2.662-0.231-3.745-0.231-4.597-0.231h-0.159h-1.367v8.092
				c0,10.364,0.106,15.386,0.391,17.764l-0.674,0.302l-4.207-1.58l-16.078-26.973l0.64-1.332H117.84z M117.84-99.28h-12.209
				l12.209,20.514V-99.28z"/>
		</g>
		<path fill="#0071BC" d="M81.269-70.263h69.734v2.988H81.269V-70.263z"/>
	</g>
	<g>
		<path fill="#0071BC" stroke="#0071BC" stroke-linecap="square" stroke-linejoin="round" d="M317,319H70.76"/>
	</g>
	<g transform="translate(28.669331,221.021164)scale(0.400000,-0.400000)">
		<g transform="scale(0.996264)">
			<path id="Pazo_Math_Italic-112_3_" fill="#0071BC" d="M25.506-237.574l0.676,0.491c1.565,4.368,4.553,4.602,8.827,4.602
				c0.887,0,2.241,0,3.806,0c-6.282-16.814-9.13-21.929-15.178-31.289l0.677-0.679l5.533,1.89
				c2.686,5.723,7.239,16.836,11.349,29.702h13.893c-1.261-4.624-5.604-18.071-5.604-22.837c0-7.798,2.849-8.755,5.161-8.755
				c3.806,0,5.977,0.957,10.693,4.902l-0.607,1.401l-1.798-1.26c0.233,0.164-1.937-1.543-3.198-1.543
				c-3.527,0-4.553,2.148-4.553,6.748c0,1.87,0.139,3.877,0.583,6.05c1.284,6.14,2.545,12.258,3.221,15.293c1.705,0,3.433,0,5.161,0
				c1.331,0,2.988,0.771,4.18,1.216c0.817,1.587,1.121,1.729,2.545,3.572l-0.537,0.911c-2.008-0.679-5.371-1.426-7.845-1.426
				c-0.887,0-2.755,0-4.624,0c-8.009,0-20.337,0-23.606,0c-5.604,0-7.635-2.285-9.807-8.403L25.506-237.574z"/>
		</g>
	</g>
	<g>
		<path fill="#0071BC" stroke="#0071BC" stroke-linecap="square" stroke-linejoin="round" d="M317,319L142.882,493.118"/>
	</g>
	<g transform="translate(79.015703,356.250498)scale(0.400000,-0.400000)">
		<g transform="scale(0.757155)">
			<path id="URW_Palladio_L_Roman-53" fill="#0071BC" d="M88.474-342.354c7.329,0,10.507,0,17.321,0l0.283,0.176
				c-0.106,1.047-0.106,1.509-0.106,2.273c0,0.798,0,1.26,0.106,2.307l-0.283,0.125c-4.259,0-6.814,0-9.867,0
				c-3.123,0-5.625,0-9.884,0l-0.284-0.125c0.054-3.496,0.106-6.016,0.106-7.844c0-4.863-0.159-10.347-0.337-12.883l1.136-0.356
				c2.661,2.769,4.205,3.586,6.991,3.586c5.448,0,8.855-3.994,8.855-10.347c0-6.494-3.638-10.31-9.83-10.31
				c-3.07,0-5.909,1.064-6.691,2.59l-2.626,4.81l-1.349-0.835c1.295-3.335,1.987-5.217,2.769-7.791
				c1.597-0.869,3.868-1.384,6.317-1.384c3.798,0,7.826,1.687,10.95,4.509c3.459,3.14,5.288,7.134,5.288,11.445
				c0,6.638-4.597,11.304-11.074,11.304c-2.732,0-4.773-0.745-8.287-2.893L88.474-342.354z"/>
		</g>
		<g transform="scale(0.757155)">
			<path id="Pazo_Math_Italic-112_4_" fill="#0071BC" d="M115.82-357.935l0.515,0.371c1.189,3.32,3.461,3.496,6.708,3.496
				c0.675,0,1.704,0,2.893,0c-4.774-12.776-6.938-16.663-11.536-23.779l0.515-0.515l4.205,1.438
				c2.041,4.348,5.502,12.795,8.625,22.573h10.558c-0.958-3.513-4.259-13.735-4.259-17.356c0-5.925,2.166-6.655,3.922-6.655
				c2.893,0,4.543,0.73,8.127,3.728l-0.461,1.064l-1.366-0.957c0.177,0.122-1.473-1.172-2.432-1.172
				c-2.679,0-3.461,1.633-3.461,5.127c0,1.421,0.107,2.947,0.444,4.597c0.975,4.668,1.934,9.316,2.449,11.624
				c1.295,0,2.609,0,3.922,0c1.011,0,2.272,0.586,3.176,0.923c0.621,1.206,0.852,1.313,1.935,2.715l-0.409,0.693
				c-1.526-0.515-4.081-1.084-5.962-1.084c-0.675,0-2.095,0-3.514,0c-6.086,0-15.457,0-17.941,0c-4.259,0-5.803-1.738-7.454-6.389
				L115.82-357.935z"/>
		</g>
		<g transform="scale(0.757155)">
			<path id="URW_Palladio_L_Roman-52_2_" fill="#0071BC" d="M117.84-422.223v-4.241c0-3.372-0.621-4.17-3.408-4.17h-3.513v-1.812
				c7.541,0,7.541,0,8.909,0c1.366,0,1.366,0,8.909,0v1.812h-2.716c-2.786,0-3.407,0.745-3.407,4.153v4.258
				c3.354,0,4.543,0,6.123-0.159v4.116c-2.662-0.229-3.745-0.229-4.597-0.229h-0.159h-1.367v8.091
				c0,10.364,0.106,15.386,0.391,17.764l-0.674,0.303l-4.207-1.58l-16.078-26.975l0.64-1.331H117.84z M117.84-418.495h-12.209
				l12.209,20.513V-418.495z"/>
		</g>
		<path fill="#0071BC" d="M81.269-389.481h69.734v2.991H81.269V-389.481z"/>
	</g>
	<g>
		<path fill="#0071BC" stroke="#000000" stroke-linecap="square" stroke-linejoin="round" d="M317,319v246.24"/>
	</g>
	<g transform="translate(206.702217,409.139984)scale(0.400000,-0.400000)">
		<g transform="scale(0.757155)">
			<path id="URW_Palladio_L_Roman-51_1_" fill="#0071BC" d="M243.326-414.342h1.758l1.012,3.32c0.64,2.004,4.204,4.028,7.168,4.028
				c3.691,0,6.689-3.159,6.689-6.887c0-4.453-3.352-8.179-7.38-8.179c-0.444,0-1.084,0-1.812,0h-0.852l-0.691-2.893l0.408-0.356
				c2.148,0.977,3.23,1.279,4.773,1.279c4.705,0,7.437-3.071,7.437-8.323c0-5.874-3.459-9.744-8.75-9.744
				c-2.607,0-4.932,0.869-6.636,2.485c-1.366,1.277-2.112,2.59-3.195,5.713l-1.526-0.586c1.189-3.53,1.65-5.605,1.987-8.481
				c3.019-1.047,5.502-1.509,7.614-1.509c4.543,0,9.761,2.59,12.883,6.46c1.934,2.378,2.893,4.934,2.893,7.649
				c0,2.769-1.135,5.181-3.176,6.636c-1.421,1.03-2.715,1.492-5.554,2.024c4.541,3.655,6.245,6.37,6.245,9.866
				c0,5.254-4.207,8.733-10.505,8.733c-3.87,0-6.423-1.118-9.156-3.94L243.326-414.342z"/>
		</g>
		<g transform="scale(0.757155)">
			<path id="Pazo_Math_Italic-112_5_" fill="#0071BC" d="M275.43-424.049l0.515,0.374c1.189,3.318,3.459,3.496,6.707,3.496
				c0.674,0,1.704,0,2.893,0c-4.773-12.776-6.938-16.663-11.536-23.779l0.515-0.515l4.207,1.438
				c2.041,4.348,5.5,12.795,8.623,22.573h10.559c-0.957-3.513-4.258-13.735-4.258-17.356c0-5.928,2.163-6.655,3.921-6.655
				c2.893,0,4.543,0.728,8.127,3.728l-0.461,1.064l-1.367-0.959c0.178,0.125-1.472-1.169-2.429-1.169
				c-2.681,0-3.462,1.631-3.462,5.127c0,1.421,0.107,2.947,0.444,4.597c0.977,4.666,1.934,9.316,2.449,11.624
				c1.296,0,2.61,0,3.921,0c1.013,0,2.273,0.586,3.176,0.923c0.623,1.206,0.852,1.313,1.936,2.715l-0.408,0.691
				c-1.528-0.513-4.082-1.082-5.964-1.082c-0.674,0-2.092,0-3.513,0c-6.086,0-15.457,0-17.942,0c-4.258,0-5.801-1.738-7.451-6.389
				L275.43-424.049z"/>
		</g>
		<g transform="scale(0.757155)">
			<path id="URW_Palladio_L_Roman-50_1_" fill="#0071BC" d="M262.453-497.101v-1.455c10.63,0,10.63,0,12.671,0
				c2.039,0,2.039,0,13.008,0c-0.125,1.155-0.125,1.687-0.125,2.449c0,0.71,0,1.26,0.125,2.449c-6.531,0-9.158,0-19.663,0
				l10.344,10.986c5.503,5.874,7.207,9.014,7.207,13.274c0,6.565-4.419,10.593-11.643,10.593c-4.082,0-6.868-1.135-9.653-4.028
				l-0.957-7.825h1.65l0.728,2.625c0.903,3.32,2.964,4.756,6.76,4.756c4.88,0,8.003-3.105,8.003-7.986
				c0-4.312-2.378-8.552-8.801-15.437L262.453-497.101z"/>
		</g>
		<path fill="#0071BC" d="M240.878-455.592h69.733v2.988h-69.733V-455.592z"/>
	</g>
	<g>
		<path fill="#0071BC" stroke="#0071BC" stroke-linecap="square" stroke-linejoin="round" d="M317,319l174.118,174.118"/>
	</g>
	<g transform="translate(334.388732,356.250498)scale(0.400000,-0.400000)">
		<g transform="scale(0.757155)">
			<path id="URW_Palladio_L_Roman-55" fill="#0071BC" d="M403.662-376.639l0.515-0.764c2.219,0.178,2.219,0.178,2.607,0.178
				c0.41,0,0.41,0,2.61-0.178c2.395,6.353,5.181,12.439,8.926,19.448l10.381,19.185v1.563c-6.121,0-8.108,0-12.705,0
				c-4.153,0-6.938,0-12.439,0l-0.569-0.125c0.159-5.52,0.159-5.52,0.159-6.123c0-0.64,0-0.64-0.159-5.928h1.704l0.391,3.267
				c0.461,3.621,0.852,4.099,3.459,4.099h15.173c-2.273-4.792-4.028-8.181-6.194-11.748L403.662-376.639z"/>
		</g>
		<g transform="scale(0.757155)">
			<path id="Pazo_Math_Italic-112_6_" fill="#0071BC" d="M435.036-357.935l0.515,0.371c1.189,3.32,3.459,3.496,6.709,3.496
				c0.674,0,1.702,0,2.891,0c-4.773-12.776-6.938-16.663-11.533-23.779l0.513-0.515l4.207,1.438
				c2.041,4.348,5.5,12.795,8.625,22.573h10.559c-0.959-3.513-4.26-13.735-4.26-17.356c0-5.925,2.166-6.655,3.923-6.655
				c2.891,0,4.541,0.73,8.127,3.728l-0.461,1.064l-1.367-0.957c0.178,0.122-1.472-1.172-2.432-1.172
				c-2.678,0-3.459,1.633-3.459,5.127c0,1.421,0.105,2.947,0.442,4.597c0.977,4.668,1.936,9.316,2.449,11.624
				c1.296,0,2.61,0,3.923,0c1.011,0,2.271,0.586,3.176,0.923c0.62,1.206,0.852,1.313,1.934,2.715l-0.408,0.693
				c-1.526-0.515-4.082-1.084-5.962-1.084c-0.674,0-2.095,0-3.513,0c-6.089,0-15.457,0-17.942,0c-4.26,0-5.803-1.738-7.454-6.389
				L435.036-357.935z"/>
		</g>
		<g transform="scale(0.757155)">
			<path id="URW_Palladio_L_Roman-52_3_" fill="#0071BC" d="M437.056-422.223v-4.241c0-3.372-0.62-4.17-3.406-4.17h-3.513v-1.812
				c7.542,0,7.542,0,8.906,0c1.367,0,1.367,0,8.909,0v1.812h-2.715c-2.786,0-3.406,0.745-3.406,4.153v4.258
				c3.352,0,4.541,0,6.121-0.159v4.116c-2.661-0.229-3.743-0.229-4.595-0.229h-0.161h-1.365v8.091
				c0,10.364,0.105,15.386,0.388,17.764l-0.674,0.303l-4.204-1.58l-16.079-26.975l0.64-1.331H437.056z M437.056-418.495h-12.209
				l12.209,20.513V-418.495z"/>
		</g>
		<path fill="#0071BC" d="M400.486-389.481h69.734v2.991h-69.734V-389.481z"/>
	</g>
	<g id="ytick1">
		<g id="text9">
			<g transform="translate(257.713443,209.717591)scale(0.400000,-0.400000)">
				<g transform="scale(0.757155)">
					<path id="URW_Palladio_L_Roman-49" fill="#0071BC" d="M308.439-161.691h0.569l7.329,3.336c0.054,0.071,0.125,0.071,0.178,0.071
						c0.337,0,0.442-0.532,0.442-1.917v-28.323c0-3.035-0.62-3.673-3.691-3.673h-3.176v-1.864c8.75,0,8.75,0,9.37,0
						c0.745,0,1.987,0,3.923,0c0.674,0,2.661,0,5.002,0v1.864h-2.964c-3.123,0-3.689,0.638-3.689,3.673v34.586l-0.801,0.303
						c-3.689-1.989-7.717-3.71-12.883-5.573L308.439-161.691z"/>
				</g>
				<g transform="scale(0.757155)">
					<path id="URW_Palladio_L_Roman-50_2_" fill="#0071BC" d="M305.548-247.822v-1.455c10.627,0,10.627,0,12.668,0s2.041,0,13.008,0
						c-0.125,1.154-0.125,1.686-0.125,2.449c0,0.71,0,1.26,0.125,2.449c-6.531,0-9.155,0-19.661,0l10.344,10.985
						c5.503,5.874,7.205,9.015,7.205,13.274c0,6.566-4.419,10.594-11.641,10.594c-4.082,0-6.868-1.136-9.653-4.028l-0.959-7.826
						h1.65l0.728,2.626c0.906,3.319,2.964,4.756,6.763,4.756c4.88,0,8.003-3.105,8.003-7.986c0-4.312-2.378-8.553-8.801-15.438
						L305.548-247.822z"/>
				</g>
				<path fill="#0071BC" d="M304.642-206.314h28.394v2.988h-28.394V-206.314z"/>
			</g>
		</g>
	</g>
	<path fill="none" stroke="#0071BC" stroke-linecap="square" stroke-linejoin="round" d="M440.12,319l-0.075-4.297l-0.225-4.291
		l-0.898-8.547l-1.492-8.463l-2.079-8.338l-2.655-8.173l-3.22-7.968l-3.767-7.724l-4.297-7.442l-4.806-7.125l-5.291-6.772
		l-5.75-6.386l-6.182-5.97l-6.584-5.524l-6.952-5.051l-7.288-4.554l-7.587-4.035l-7.852-3.495l-8.075-2.939l-8.261-2.369
		l-8.405-1.787l-8.511-1.196l-8.572-0.6h-8.594l-8.573,0.6l-8.51,1.196l-8.406,1.787l-8.261,2.369l-8.075,2.939l-7.851,3.495
		l-7.588,4.035l-7.288,4.554l-6.953,5.051l-6.583,5.524l-6.182,5.97l-5.75,6.386l-5.291,6.772l-4.806,7.125l-4.297,7.442
		l-3.767,7.724l-3.219,7.968l-2.656,8.173l-2.079,8.338l-1.492,8.463l-0.898,8.547l-0.3,8.588l0.3,8.588l0.898,8.547l1.492,8.463
		l2.079,8.339l2.656,8.173l3.219,7.969l3.767,7.723l4.297,7.443l4.806,7.124l5.291,6.771l5.75,6.387l6.182,5.97l6.583,5.523
		l6.953,5.052l7.288,4.554l7.588,4.034l7.851,3.496l8.075,2.938l8.261,2.369l8.406,1.787l8.51,1.195l8.573,0.6h8.594l8.572-0.6
		l8.511-1.195l8.405-1.787l8.261-2.369l8.075-2.938l7.852-3.496l7.587-4.034l7.288-4.554l6.952-5.052l6.584-5.523l6.182-5.97
		l5.75-6.387l5.291-6.771l4.806-7.124l4.297-7.443l3.767-7.723l3.22-7.969l2.655-8.173l2.079-8.339l1.492-8.463l0.898-8.547
		L440.12,319L440.12,319"/>
	<g transform="scale(0.996264)">
		<path id="URW_Palladio_L_Roman-49_1_" fill="#0071BC" d="M436.649,260.208h0.299l3.857-1.756c0.028-0.038,0.065-0.038,0.094-0.038
			c0.178,0,0.233,0.28,0.233,1.009v14.907c0,1.597-0.327,1.933-1.942,1.933h-1.672v0.981c4.604,0,4.604,0,4.932,0
			c0.392,0,1.046,0,2.063,0c0.355,0,1.401,0,2.634,0v-0.981h-1.56c-1.644,0-1.942-0.336-1.942-1.933v-18.204l-0.421-0.159
			c-1.942,1.046-4.063,1.952-6.78,2.933L436.649,260.208z"/>
	</g>
	<path fill="none" d="M-156,424.24c65.304,0,127.941-25.945,174.118-72.122S90.24,243.304,90.24,178S64.295,50.058,18.118,3.882
		C-28.059-42.295-90.696-68.24-156-68.24S-283.941-42.295-330.118,3.882C-376.294,50.058-402.24,112.696-402.24,178
		s25.946,127.941,72.122,174.118C-283.941,398.295-221.304,424.24-156,424.24z"/>
	<path fill="none" stroke="#0071BC" stroke-linecap="square" stroke-linejoin="round" d="M501.207,325.21l-0.112-6.445l-0.337-6.438
		l-0.563-6.422l-0.785-6.398l-1.009-6.366l-1.229-6.327l-1.45-6.281l-1.669-6.227l-1.885-6.165l-2.099-6.095l-2.31-6.018
		l-2.519-5.935l-2.725-5.843l-2.927-5.743l-3.125-5.638l-3.32-5.525l-3.511-5.406l-3.697-5.281l-3.879-5.147L458,206.5l-4.229-4.865
		l-4.396-4.714l-4.559-4.559l-4.714-4.396l-4.865-4.229l-5.01-4.057l-5.148-3.879l-5.28-3.697l-5.406-3.511l-5.525-3.32
		l-5.638-3.125l-5.744-2.926l-5.842-2.724l-5.934-2.519l-6.019-2.31l-6.095-2.099l-6.165-1.885l-6.227-1.668l-6.28-1.45l-6.328-1.23
		l-6.367-1.008l-6.397-0.786l-6.422-0.562l-6.438-0.337l-6.445-0.113l-6.445,0.113l-6.438,0.337l-6.422,0.562l-6.398,0.786
		l-6.366,1.008l-6.327,1.23l-6.281,1.45l-6.227,1.668l-6.165,1.885l-6.095,2.099l-6.018,2.31l-5.935,2.519l-5.843,2.724
		l-5.743,2.926l-5.638,3.125l-5.525,3.32l-5.406,3.511l-5.281,3.697l-5.147,3.879l-5.01,4.057l-4.865,4.229l-4.714,4.396
		l-4.558,4.559l-4.396,4.714l-4.229,4.865l-4.057,5.01l-3.879,5.147l-3.697,5.281l-3.511,5.406l-3.32,5.525l-3.125,5.638
		l-2.926,5.743l-2.724,5.843l-2.519,5.935l-2.31,6.018l-2.099,6.095l-1.885,6.165l-1.668,6.227l-1.45,6.281l-1.23,6.327
		l-1.008,6.366l-0.786,6.398l-0.562,6.422l-0.337,6.438l-0.113,6.445l0.113,6.445l0.337,6.438l0.562,6.422l0.786,6.398l1.008,6.366
		l1.23,6.327l1.45,6.281l1.668,6.227l1.885,6.165l2.099,6.095l2.31,6.018l2.519,5.935l2.724,5.842l2.926,5.744l3.125,5.638
		l3.32,5.525l3.511,5.406l3.697,5.28l3.879,5.148l4.057,5.01l4.229,4.865l4.396,4.714l4.558,4.559l4.714,4.396l4.865,4.229
		l5.01,4.058l5.147,3.879l5.281,3.697l5.406,3.511l5.525,3.32l5.638,3.125l5.743,2.927l5.843,2.725l5.935,2.519l6.018,2.31
		l6.095,2.1l6.165,1.884l6.227,1.669l6.281,1.45l6.327,1.229l6.366,1.009l6.398,0.785l6.422,0.563l6.438,0.337l6.445,0.112
		l6.445-0.112l6.438-0.337l6.422-0.563l6.397-0.785l6.367-1.009l6.328-1.229l6.28-1.45l6.227-1.669l6.165-1.884l6.095-2.1
		l6.019-2.31l5.934-2.519l5.842-2.725l5.744-2.927l5.638-3.125l5.525-3.32l5.406-3.511l5.28-3.697l5.148-3.879l5.01-4.058
		l4.865-4.229l4.714-4.396l4.559-4.559l4.396-4.714L458,443.92l4.058-5.01l3.879-5.148l3.697-5.28l3.511-5.406l3.32-5.525
		l3.125-5.638l2.927-5.744l2.725-5.842l2.519-5.935l2.31-6.018l2.099-6.095l1.885-6.165l1.669-6.227l1.45-6.281l1.229-6.327
		l1.009-6.366l0.785-6.398l0.563-6.422l0.337-6.438L501.207,325.21L501.207,325.21"/>
	<g transform="scale(0.757155)">
		<path id="URW_Palladio_L_Roman-51_2_" fill="#0071BC" d="M494.298,228.627h0.703l0.404-1.328c0.255-0.802,1.683-1.611,2.867-1.611
			c1.477,0,2.677,1.264,2.677,2.754c0,1.782-1.342,3.272-2.953,3.272c-0.178,0-0.433,0-0.725,0h-0.34l-0.277,1.157l0.163,0.142
			c0.859-0.391,1.292-0.511,1.91-0.511c1.881,0,2.974,1.228,2.974,3.329c0,2.35-1.384,3.897-3.499,3.897
			c-1.044,0-1.974-0.348-2.655-0.994c-0.546-0.511-0.845-1.036-1.277-2.286l-0.61,0.234c0.476,1.413,0.66,2.243,0.795,3.393
			c1.206,0.418,2.2,0.603,3.045,0.603c1.817,0,3.904-1.036,5.153-2.583c0.773-0.951,1.157-1.974,1.157-3.06
			c0-1.107-0.454-2.073-1.271-2.655c-0.568-0.412-1.086-0.596-2.222-0.809c1.817-1.462,2.498-2.548,2.498-3.947
			c0-2.101-1.682-3.492-4.202-3.492c-1.547,0-2.569,0.447-3.662,1.576L494.298,228.627z"/>
	</g>
	<g transform="scale(0.757155)">
		<path id="URW_Palladio_L_Roman-50_3_" fill="#0071BC" d="M493.681,261.73v0.582c4.251,0,4.251,0,5.067,0s0.816,0,5.203,0
			c-0.05-0.461-0.05-0.674-0.05-0.979c0-0.284,0-0.504,0.05-0.979c-2.612,0-3.662,0-7.864,0l4.138-4.394
			c2.201-2.35,2.882-3.606,2.882-5.31c0-2.626-1.768-4.238-4.656-4.238c-1.633,0-2.747,0.454-3.861,1.611l-0.384,3.13h0.66
			l0.291-1.051c0.362-1.327,1.186-1.902,2.705-1.902c1.952,0,3.201,1.242,3.201,3.194c0,1.725-0.951,3.421-3.521,6.176
			L493.681,261.73z"/>
	</g>
	<path fill="#0071BC" d="M493.318,245.127h11.357v-1.195h-11.357V245.127z"/>
	<g>
		<path fill="none" stroke="#000000" stroke-linecap="square" stroke-linejoin="round" d="M563.24,319l-0.15-8.594l-0.449-8.583
			l-0.75-8.563l-1.047-8.531l-1.345-8.489l-1.64-8.437l-1.934-8.375l-2.225-8.302l-2.513-8.219l-2.799-8.127l-3.08-8.024
			l-3.358-7.912l-3.632-7.79l-3.902-7.658l-4.167-7.518l-4.427-7.367l-4.681-7.208l-4.931-7.041l-5.172-6.864l-5.409-6.68
			l-5.639-6.486l-5.862-6.286l-6.077-6.078l-6.286-5.862l-6.486-5.639l-6.68-5.409l-6.864-5.173l-7.041-4.93l-7.208-4.681
			l-7.367-4.427l-7.518-4.167l-7.658-3.902l-7.789-3.632l-7.912-3.358l-8.024-3.081l-8.126-2.798l-8.22-2.513l-8.302-2.225
			l-8.375-1.933l-8.438-1.64l-8.489-1.345l-8.53-1.047l-8.563-0.749l-8.583-0.45L317,72.76l-8.594,0.15l-8.583,0.45l-8.563,0.749
			l-8.531,1.047l-8.489,1.345l-8.437,1.64l-8.375,1.933l-8.302,2.225l-8.219,2.513l-8.127,2.798l-8.024,3.081l-7.912,3.358
			l-7.79,3.632l-7.658,3.902l-7.518,4.167l-7.367,4.427l-7.208,4.681l-7.041,4.93l-6.864,5.173l-6.679,5.409l-6.487,5.639
			l-6.286,5.862l-6.078,6.078l-5.862,6.286l-5.639,6.486l-5.409,6.68l-5.173,6.864l-4.93,7.041l-4.681,7.208l-4.427,7.367
			l-4.167,7.518l-3.902,7.658l-3.633,7.79l-3.358,7.912l-3.081,8.024l-2.798,8.127l-2.513,8.219l-2.225,8.302l-1.933,8.375
			l-1.64,8.437l-1.345,8.489l-1.047,8.531l-0.749,8.563l-0.45,8.583L70.76,319l0.15,8.594l0.45,8.583l0.749,8.563l1.047,8.53
			l1.345,8.49l1.64,8.437l1.933,8.374l2.225,8.303l2.513,8.219l2.798,8.127l3.081,8.024l3.358,7.912l3.633,7.789l3.902,7.658
			l4.167,7.518l4.427,7.367l4.681,7.208l4.93,7.041l5.173,6.864l5.409,6.68l5.639,6.486l5.862,6.286l6.078,6.077l6.286,5.862
			l6.487,5.639l6.679,5.409l6.864,5.172l7.041,4.931l7.208,4.681l7.367,4.427l7.518,4.167l7.658,3.902l7.79,3.632l7.912,3.358
			l8.024,3.08l8.127,2.799l8.219,2.513l8.302,2.225l8.375,1.934l8.437,1.64l8.489,1.345l8.531,1.047l8.563,0.75l8.583,0.449
			l8.594,0.15l8.594-0.15l8.583-0.449l8.563-0.75l8.53-1.047l8.489-1.345l8.438-1.64l8.375-1.934l8.302-2.225l8.22-2.513
			l8.126-2.799l8.024-3.08l7.912-3.358l7.789-3.632l7.658-3.902l7.518-4.167l7.367-4.427l7.208-4.681l7.041-4.931l6.864-5.172
			l6.68-5.409l6.486-5.639l6.286-5.862l6.077-6.077l5.862-6.286l5.639-6.486l5.409-6.68l5.172-6.864l4.931-7.041l4.681-7.208
			l4.427-7.367l4.167-7.518l3.902-7.658l3.632-7.789l3.358-7.912l3.08-8.024l2.799-8.127l2.513-8.219l2.225-8.303l1.934-8.374
			l1.64-8.437l1.345-8.49l1.047-8.53l0.75-8.563l0.449-8.583L563.24,319L563.24,319"/>
	</g>
	<g transform="translate(370.265947,156.881890)scale(0.400000,-0.400000)">
		<g transform="scale(0.996264)">
			<path id="URW_Palladio_L_Roman-50_4_" fill="#0071BC" d="M446.523-181.202v-1.914c13.987,0,13.987,0,16.672,0s2.686,0,17.117,0
				c-0.164,1.517-0.164,2.218-0.164,3.221c0,0.935,0,1.658,0.164,3.223c-8.594,0-12.051,0-25.874,0l13.613,14.453
				c7.239,7.729,9.48,11.863,9.48,17.466c0,8.64-5.813,13.94-15.317,13.94c-5.369,0-9.036-1.494-12.703-5.3l-1.26-10.298h2.17
				l0.959,3.456c1.189,4.366,3.899,6.259,8.896,6.259c6.421,0,10.53-4.087,10.53-10.508c0-5.674-3.13-11.255-11.582-20.315
				L446.523-181.202z"/>
		</g>
	</g>
	<path fill="none" stroke="#0071BC" stroke-linecap="square" stroke-linejoin="round" d="M317,565.24
		c65.304,0,127.941-25.945,174.118-72.122S563.24,384.304,563.24,319s-25.945-127.941-72.122-174.118
		C444.941,98.705,382.304,72.76,317,72.76s-127.941,25.946-174.118,72.122C96.706,191.058,70.76,253.696,70.76,319
		s25.946,127.941,72.122,174.118C189.059,539.295,251.696,565.24,317,565.24z"/>
	<g id="text13">
		<g transform="translate(38,48)scale(0.400000,-0.400000)">
			<g transform="scale(0.996264)">
				<path id="Pazo_Math_Italic-114" fill="#0071BC" d="M37.099-18.342c1.565-2.825,4.249-4.249,7.986-4.249
					c3.97,0,8.383,1.891,11.675,4.973c4.763,4.46,8.126,13.076,8.126,20.829c0,7.098-3.737,11.394-9.854,11.394
					c-3.223,0-6.422-1.121-9.714-3.385c-2.545-1.705-4.623-3.97-6.211-6.678c-1.121-1.658-2.008-3.549-2.755-5.347
					c-1.868-4.437-2.919-9.037-3.737-13.613c-1.354-7.892-2.241-19.568-3.129-27.389l1.121-0.585
					c1.869,0.585,3.269,0.958,5.371,1.261c-0.14,2.172-0.233,5.021-0.233,8.009c0,5.231,0.233,10.905,0.747,14.711L37.099-18.342z
					 M52.112,11.78c4.717,0,7.098-3.339,7.098-9.69c0-7.333-2.311-15.342-5.603-19.358c-1.332-1.587-3.292-2.498-5.535-2.498
					c-4.482,0-6.935,3.408-6.935,9.386c0,8.546,2.919,17.839,6.561,20.852C48.681,11.336,50.315,11.78,52.112,11.78"/>
			</g>
			<g transform="scale(1.038107)">
				<path id="CMR10-61" fill="#0071BC" d="M143.462,5.278c1.168,0,2.653,0,2.653,1.606c0,1.605-1.484,1.605-2.555,1.605H96.918
					c-1.095,0-2.579,0-2.579-1.605c0-1.606,1.484-1.606,2.653-1.606H143.462z M143.56-10.196c1.071,0,2.555,0,2.555,1.605
					c0,1.582-1.484,1.582-2.653,1.582H96.991c-1.168,0-2.653,0-2.653-1.582c0-1.605,1.484-1.605,2.579-1.605H143.56z"/>
			</g>
			<g transform="scale(0.757155)">
				<path id="URW_Palladio_L_Roman-49_2_" fill="#0071BC" d="M198.456,40.711h0.568l7.329,3.336
					c0.054,0.072,0.125,0.072,0.178,0.072c0.337,0,0.443-0.533,0.443-1.917V13.88c0-3.035-0.621-3.673-3.691-3.673h-3.176V8.343
					c8.749,0,8.749,0,9.37,0c0.745,0,1.987,0,3.922,0c0.674,0,2.661,0,5.004,0v1.864h-2.964c-3.123,0-3.69,0.638-3.69,3.673v34.586
					l-0.8,0.302c-3.69-1.987-7.719-3.708-12.883-5.571L198.456,40.711z"/>
			</g>
			<g transform="scale(0.757155)">
				<path id="URW_Palladio_L_Roman-50_5_" fill="#0071BC" d="M174.894-45.419v-1.455c10.629,0,10.629,0,12.67,0s2.041,0,13.008,0
					c-0.125,1.154-0.125,1.686-0.125,2.449c0,0.709,0,1.26,0.125,2.449c-6.531,0-9.156,0-19.662,0l10.345,10.985
					c5.502,5.873,7.205,9.015,7.205,13.274c0,6.565-4.419,10.593-11.641,10.593c-4.082,0-6.868-1.135-9.655-4.028l-0.958-7.826h1.65
					l0.728,2.627c0.906,3.318,2.964,4.756,6.761,4.756c4.88,0,8.003-3.105,8.003-7.986c0-4.312-2.378-8.553-8.801-15.438
					L174.894-45.419z"/>
			</g>
			<g transform="scale(0.757155)">
				<path id="Pazo_Math_Italic-112_7_" fill="#0071BC" d="M208.539-27.585l0.515,0.372c1.189,3.319,3.461,3.496,6.708,3.496
					c0.675,0,1.704,0,2.893,0c-4.774-12.777-6.938-16.664-11.536-23.779l0.515-0.515l4.205,1.438
					c2.041,4.347,5.502,12.794,8.625,22.572h10.558c-0.958-3.513-4.259-13.735-4.259-17.355c0-5.928,2.166-6.655,3.922-6.655
					c2.893,0,4.543,0.728,8.127,3.727l-0.461,1.064l-1.366-0.958c0.177,0.125-1.473-1.171-2.432-1.171
					c-2.679,0-3.461,1.632-3.461,5.128c0,1.42,0.107,2.946,0.444,4.596c0.975,4.668,1.934,9.316,2.449,11.624
					c1.295,0,2.609,0,3.922,0c1.011,0,2.272,0.586,3.176,0.923c0.621,1.207,0.852,1.313,1.935,2.715l-0.409,0.693
					c-1.526-0.515-4.081-1.083-5.962-1.083c-0.675,0-2.095,0-3.514,0c-6.086,0-15.457,0-17.941,0c-4.259,0-5.803-1.74-7.454-6.389
					L208.539-27.585z"/>
			</g>
			<g transform="scale(0.996264)">
				<path id="Pazo_Math_Italic-113" fill="#0071BC" d="M270.126,31.208c-3.199,0-6.492-1.565-9.924-4.904
					c-6.654-6.351-11.581-17.583-11.581-31.312c0-11.862,2.382-17.583,8.662-17.583c3.97,0,8.594,2.755,12.096,7.216
					c5.09,6.49,9.713,18.796,9.713,30.051C279.092,25.043,276.267,31.208,270.126,31.208 M263.705,2.814
					c5.09,0,7.168-0.234,8.452-0.818c-1.658-7.518-4.413-14.22-6.794-18.119c-1.494-2.289-3.527-3.643-5.768-3.643
					c-4.482,0-5.3,5.743-5.3,14.617c0,2.312,0.14,4.67,0.514,7.075C256.397,2.58,258.405,2.814,263.705,2.814 M268.258,28.382
					c4.717,0,5.16-6.118,5.16-15.364c0-2.079-0.14-4.226-0.443-6.328c-1.495-0.514-3.806-0.747-8.733-0.747
					c-5.09,0-7.262,0.233-8.594,0.747c1.938,8.802,5.371,16.859,8.057,19.965C264.755,27.775,266.483,28.382,268.258,28.382"/>
			</g>
			<path fill="#0071BC" d="M173.988-3.911h69.734v2.988h-69.734V-3.911z"/>
		</g>
	</g>
</g>
<g id="Layer_2">
</g>
</svg>
